Coordinates
version=1
nRows=32
nColumns=22
inDegrees=yes

Units are S.I. units (second, meters, Newtons, ...)
If the header above contains a line with 'inDegrees', this indicates whether rotational values are in degrees (yes) or radians (no).

endheader
time	pelvis_tilt	pelvis_list	pelvis_rotation	pelvis_tx	pelvis_ty	pelvis_tz	hip_flexion_r	hip_adduction_r	hip_rotation_r	knee_angle_r	ankle_angle_r	subtalar_angle_r	hip_flexion_l	hip_adduction_l	hip_rotation_l	knee_angle_l	ankle_angle_l	subtalar_angle_l	lumbar_extension	lumbar_bending	lumbar_rotation
      0.01000000	     -1.00718966	     -3.87444541	      0.55695975	     -1.64685667	      1.01528073	     -0.03290411	      0.87822232	      3.37395619	     -5.40231383	    -13.27544905	      9.16958951	      0.84792406	     -1.28170060	     -6.41911425	    -10.92803009	     -9.62921026	     10.73038612	     -0.78332439	     -2.95851941	      0.88632986	     -1.31813533
      0.02000000	     -1.00447919	     -3.87180603	      0.57328248	     -1.64678498	      1.01527618	     -0.03291106	      0.87469602	      3.37338552	     -5.39712495	    -13.28343844	      9.16995911	      0.84880609	     -1.28473982	     -6.41775169	    -10.92845064	     -9.63048413	     10.73051157	     -0.78254896	     -2.95444912	      0.89196355	     -1.31409903
      0.03000000	     -0.98821640	     -3.87097893	      0.59796595	     -1.64676264	      1.01528156	     -0.03290950	      0.87249782	      3.37604011	     -5.38062620	    -13.31914476	      9.18580442	      0.85220825	     -1.29604930	     -6.42045074	    -10.90461176	     -9.63603004	     10.73497545	     -0.77638660	     -2.97840933	      0.89750890	     -1.31589250
      0.04000000	     -0.95706118	     -3.85923006	      0.63272104	     -1.64667977	      1.01530349	     -0.03295556	      0.84055882	      3.36385826	     -5.39734736	    -13.33624485	      9.22926949	      0.85601796	     -1.33306839	     -6.40683244	    -10.86565178	     -9.62698816	     10.74762592	     -0.75967736	     -3.00728821	      0.89868856	     -1.32341784
      0.05000000	     -0.94243394	     -3.85359692	      0.65794988	     -1.64662511	      1.01530531	     -0.03296663	      0.83647837	      3.36063866	     -5.38808970	    -13.36861065	      9.23386072	      0.85371052	     -1.34527936	     -6.40343413	    -10.84963833	     -9.63126560	     10.74660623	     -0.75586974	     -3.02007469	      0.90311189	     -1.32610487
      0.06000000	     -0.92198898	     -3.84500882	      0.68919900	     -1.64657186	      1.01530953	     -0.03298924	      0.82596104	      3.35339380	     -5.38952584	    -13.40147325	      9.25769659	      0.84475605	     -1.36615087	     -6.39580153	    -10.81928721	     -9.62874918	     10.75218098	     -0.75108917	     -3.03900821	      0.90407467	     -1.32977336
      0.07000000	     -0.91804061	     -3.84063952	      0.71413277	     -1.64649177	      1.01529489	     -0.03300187	      0.82092647	      3.35178526	     -5.38470680	    -13.41158230	      9.25875043	      0.84379885	     -1.37050431	     -6.39375929	    -10.82023593	     -9.62815219	     10.75262347	     -0.75081070	     -3.03186269	      0.90840342	     -1.32409817
      0.08000000	     -0.89156887	     -3.82657345	      0.74941238	     -1.64645671	      1.01530184	     -0.03303125	      0.80996383	      3.33776736	     -5.39245104	    -13.45683971	      9.29705799	      0.82724200	     -1.39970477	     -6.37912069	    -10.77095607	     -9.61865844	     10.76137066	     -0.74605865	     -3.05946281	      0.90183879	     -1.34177962
      0.09000000	     -0.88834778	     -3.82267184	      0.77316153	     -1.64638659	      1.01528581	     -0.03303896	      0.80470120	      3.33656968	     -5.38952802	    -13.46409033	      9.29846766	      0.82607083	     -1.40355124	     -6.37758420	    -10.77198657	     -9.61678879	     10.76158884	     -0.74586339	     -3.05203271	      0.90262929	     -1.33654448
      0.10000000	     -0.86801502	     -3.79566934	      0.81608996	     -1.64631703	      1.01528337	     -0.03308459	      0.78535337	      3.30805070	     -5.42275981	    -13.48397818	      9.34976329	      0.80015881	     -1.43797568	     -6.34619849	    -10.71128372	     -9.58517923	     10.76751907	     -0.74102653	     -3.06589553	      0.87637136	     -1.36987370
      0.11000000	     -0.86543161	     -3.79280833	      0.83372927	     -1.64626132	      1.01526733	     -0.03308338	      0.78122784	      3.30739318	     -5.42123551	    -13.48911305	      9.34957248	      0.79931665	     -1.44101085	     -6.34568333	    -10.71244150	     -9.58500331	     10.76656633	     -0.74094154	     -3.05886917	      0.87579484	     -1.36586123
      0.12000000	     -0.86220677	     -3.77332691	      0.86727677	     -1.64617208	      1.01525126	     -0.03310772	      0.76515102	      3.28746988	     -5.45803936	    -13.47788265	      9.36843900	      0.78220644	     -1.45737415	     -6.32402145	    -10.68587824	     -9.55702022	     10.76078253	     -0.73909184	     -3.04766919	      0.85317273	     -1.39369042
      0.13000000	     -0.86057560	     -3.77200114	      0.87960243	     -1.64612921	      1.01523482	     -0.03308497	      0.76224380	      3.28863539	     -5.45748213	    -13.48201040	      9.36874162	      0.78129547	     -1.46049443	     -6.32572462	    -10.68548487	     -9.55611238	     10.76045602	     -0.73914328	     -3.04226299	      0.84836316	     -1.39288550
      0.14000000	     -0.86089977	     -3.77086213	      0.89184807	     -1.64608434	      1.01521548	     -0.03304257	      0.75786100	      3.29118309	     -5.46057235	    -13.48052166	      9.37087789	      0.77977480	     -1.46421246	     -6.32860059	    -10.68531872	     -9.54954323	     10.76132162	     -0.73932349	     -3.03449738	      0.83750800	     -1.39700331
      0.15000000	     -0.85861955	     -3.75332699	      0.93301243	     -1.64599894	      1.01520095	     -0.03307766	      0.72643922	      3.27224832	     -5.52577841	    -13.43768636	      9.38862016	      0.75829622	     -1.48006209	     -6.30759390	    -10.62553344	     -9.51927849	     10.75246748	     -0.73823610	     -3.02414826	      0.81619742	     -1.46278085
      0.16000000	     -0.86432381	     -3.75401042	      0.94549355	     -1.64594855	      1.01517431	     -0.03303951	      0.71661522	      3.27659289	     -5.53646029	    -13.41567004	      9.39094938	      0.75695861	     -1.48405174	     -6.31086349	    -10.63561744	     -9.49943864	     10.75688593	     -0.73985121	     -3.00971352	      0.80791787	     -1.47575473
      0.17000000	     -0.87048490	     -3.75574560	      0.95361265	     -1.64590039	      1.01514842	     -0.03298193	      0.70062893	      3.28239320	     -5.54838168	    -13.38047511	      9.39290801	      0.75735201	     -1.48556512	     -6.31694067	    -10.63962547	     -9.48660577	     10.75984277	     -0.74144510	     -2.99459372	      0.79741180	     -1.49816307
      0.18000000	     -0.87711917	     -3.75971483	      0.96269780	     -1.64586683	      1.01512269	     -0.03292566	      0.68142914	      3.29090922	     -5.56144954	    -13.33658299	      9.39226011	      0.76052504	     -1.48404199	     -6.32525964	    -10.64055450	     -9.47623971	     10.76287926	     -0.74333010	     -2.98228183	      0.79004713	     -1.52771490
      0.19000000	     -0.88338640	     -3.76744688	      0.97264215	     -1.64584904	      1.01509978	     -0.03287034	      0.65903697	      3.30326054	     -5.57604693	    -13.28529122	      9.38763972	      0.76744564	     -1.47953035	     -6.33793330	    -10.63869928	     -9.46999089	     10.76665713	     -0.74587635	     -2.97283242	      0.78684314	     -1.56208551
      0.20000000	     -0.88051293	     -3.79368350	      0.99488749	     -1.64586083	      1.01509017	     -0.03283471	      0.62455570	      3.33552041	     -5.60369361	    -13.22499471	      9.35725382	      0.79250090	     -1.47441613	     -6.37151854	    -10.61077882	     -9.47715101	     10.77694823	     -0.75298738	     -2.98116521	      0.80827598	     -1.61731961
      0.21000000	     -0.89077273	     -3.79958339	      0.99019943	     -1.64585558	      1.01506090	     -0.03275228	      0.60778735	      3.34566544	     -5.61629792	    -13.17435094	      9.35936650	      0.79872934	     -1.46867199	     -6.38215687	    -10.62058108	     -9.46910392	     10.78198459	     -0.75595784	     -2.97023995	      0.80010890	     -1.63697474
      0.22000000	     -0.90047716	     -3.81031072	      0.98399181	     -1.64585849	      1.01503576	     -0.03267612	      0.58620324	      3.36095429	     -5.62547294	    -13.11376181	      9.35304912	      0.80862291	     -1.45885155	     -6.39803301	    -10.62801282	     -9.47077092	     10.78536240	     -0.75973293	     -2.96203802	      0.80079137	     -1.66880134
      0.23000000	     -0.90284772	     -3.84485502	      0.98774838	     -1.64588121	      1.01502690	     -0.03260625	      0.55455087	      3.40337438	     -5.63423100	    -13.04482255	      9.31181845	      0.83916395	     -1.44927142	     -6.44159855	    -10.62179588	     -9.48137155	     10.79746728	     -0.76992540	     -2.96854615	      0.82900552	     -1.71296456
      0.24000000	     -0.91560543	     -3.84995160	      0.96559904	     -1.64586327	      1.01500120	     -0.03252873	      0.53816173	      3.41029705	     -5.64585088	    -12.98941237	      9.31367119	      0.84521914	     -1.44609885	     -6.44842192	    -10.63464657	     -9.47359463	     10.80140742	     -0.77258937	     -2.95650079	      0.82572989	     -1.72802227
      0.25000000	     -0.92764817	     -3.85791172	      0.94267016	     -1.64583674	      1.01497913	     -0.03244762	      0.51891506	      3.42135046	     -5.64622176	    -12.93079613	      9.30751234	      0.85439573	     -1.44376318	     -6.45953941	    -10.65303136	     -9.46636334	     10.80350746	     -0.77452669	     -2.94520748	      0.82490930	     -1.75126484
      0.26000000	     -0.93846844	     -3.86585088	      0.91146955	     -1.64579146	      1.01495842	     -0.03236434	      0.50145867	      3.43143736	     -5.64228349	    -12.87929345	      9.29980307	      0.86460062	     -1.44700721	     -6.47053526	    -10.67269897	     -9.45859754	     10.80607919	     -0.77381527	     -2.93384594	      0.82730080	     -1.76986741
      0.27000000	     -0.94968319	     -3.87559773	      0.87874611	     -1.64574845	      1.01493801	     -0.03226936	      0.48524390	      3.44500159	     -5.62690936	    -12.82930694	      9.29143057	      0.87945231	     -1.45319959	     -6.48497402	    -10.70362719	     -9.44192056	     10.81125895	     -0.76686502	     -2.92521759	      0.82915444	     -1.78439427
      0.28000000	     -0.95575078	     -3.87770030	      0.84761123	     -1.64574554	      1.01491791	     -0.03218284	      0.48690819	      3.44717138	     -5.63037074	    -12.81981645	      9.29193177	      0.88145140	     -1.45585626	     -6.49294102	    -10.70298729	     -9.44246617	     10.81206237	     -0.76507698	     -2.93053907	      0.82233120	     -1.79417002
      0.29000000	     -0.96652220	     -3.89783216	      0.76531339	     -1.64569236	      1.01489466	     -0.03201664	      0.48595678	      3.47235634	     -5.53720702	    -12.79936496	      9.30272021	      0.94625523	     -1.47820915	     -6.52256987	    -10.80186213	     -9.41802301	     10.83906270	     -0.66912337	     -2.92133598	      0.84013398	     -1.75650868
      0.30000000	     -0.97175222	     -3.89807411	      0.73024262	     -1.64570721	      1.01487118	     -0.03192869	      0.51370491	      3.46975454	     -5.53048979	    -12.83891080	      9.31459429	      0.95806419	     -1.49001087	     -6.53160239	    -10.81043069	     -9.40210114	     10.85221398	     -0.63854328	     -2.92950070	      0.83556785	     -1.78029302
      0.31000000	     -1.01161370	     -3.87955297	      0.65754986	     -1.64574118	      1.01478701	     -0.03177423	      0.60845049	      3.44541657	     -5.48081375	    -12.93584500	      9.39994865	      1.02543594	     -1.46151853	     -6.52532143	    -10.87015104	     -9.40733485	     10.89285337	     -0.44593307	     -2.89821182	      0.80619317	     -1.75141267
      0.32000000	     -1.04232016	     -3.86797708	      0.59504778	     -1.64581624	      1.01471407	     -0.03163023	      0.72214918	      3.42672029	     -5.45055639	    -13.08071869	      9.47155930	      1.06177863	     -1.44175018	     -6.52712734	    -10.89535653	     -9.40630254	     10.92788546	     -0.30960709	     -2.88635080	      0.78591846	     -1.73705149
